{"title":"The Losers (PSP + Ipod touch + Zune)","uid":5664748,"size":386767964,"categoryP":"video","categoryS":"handheld","magnet":"?xt=urn:btih:18b896ba41f74237841a331f4a0c6cde127950f8&amp;dn=The+Losers+%28PSP+%2B+Ipod+touch+%2B+Zune%29&amp;tr=udp%3A%2F%2Ftracker.openbittorrent.com%3A80&amp;tr=udp%3A%2F%2Fopen.demonii.com%3A1337&amp;tr=udp%3A%2F%2Ftracker.coppersurfer.tk%3A6969&amp;tr=udp%3A%2F%2Fexodus.desync.com%3A6969","seeders":1,"leechers":0,"uploader":"on.off.on","files":-1,"time":1278097672,"description":"The Losers &lt;a href=&quot;\nhttp://www.imdb.com/title/tt0480255/&quot; rel=&quot;nofollow&quot; target=&quot;_NEW&quot;&gt;\nhttp://www.imdb.com/title/tt0480255/&lt;/a&gt;\n\n\nSource  :\n\nThe Losers (2010) BluRay 1080p DTS x264-CHD\n\n\nInfo:\n\nID                               : 1\nFormat                           : AVC\nFormat/Info                      : Advanced Video Codec\nFormat profile                   : &lt;a class=&quot;__cf_email__&quot; href=&quot;/cdn-cgi/l/email-protection&quot; data-cfemail=&quot;57153624323b3e3932171b657967&quot;&gt;[email&amp;#160;protected]&lt;/a&gt;&lt;script cf-hash='f9e31' type=&quot;text/javascript&quot;&gt;\n/* &lt;![CDATA[ */!function(){try{var t=&quot;currentScript&quot;in document?document.currentScript:function(){for(var t=document.getElementsByTagName(&quot;script&quot;),e=t.length;e--;)if(t[e].getAttribute(&quot;cf-hash&quot;))return t[e]}();if(t&amp;&amp;t.previousSibling){var e,r,n,i,c=t.previousSibling,a=c.getAttribute(&quot;data-cfemail&quot;);if(a){for(e=&quot;&quot;,r=parseInt(a.substr(0,2),16),n=2;a.length-n;n+=2)i=parseInt(a.substr(n,2),16)^r,e+=String.fromCharCode(i);e=document.createTextNode(e),c.parentNode.replaceChild(e,c)}}}catch(u){}}();/* ]]&gt; */&lt;/script&gt;\nFormat settings, CABAC           : No\nFormat settings, ReFrames        : 3 frames\nCodec ID                         : avc1\nCodec ID/Info                    : Advanced Video Coding\nDuration                         : 1h 36mn\nBit rate mode                    : Variable\nBit rate                         : 400 Kbps\nWidth                            : 480 pixels\nHeight                           : 208 pixels\nDisplay aspect ratio             : 2.35:1\nFrame rate mode                  : Variable\nFrame rate                       : 23.976 fps\nMinimum frame rate               : 23.810 fps\nMaximum frame rate               : 24.390 fps\nColor space                      : YUV\nChroma subsampling               : 4:2:0\nBit depth                        : 8 bits\nScan type                        : Progressive\nBits/(Pixel*Frame)               : 0.167\nStream size                      : 277 MiB (75%)\nWriting library                  : x264 core 79\n\nID                               : 2\nFormat                           : AAC\nFormat/Info                      : Advanced Audio Codec\nFormat version                   : Version 4\nFormat profile                   : LC\nFormat settings, SBR             : No\nCodec ID                         : 40\nDuration                         : 1h 37mn\nBit rate mode                    : Variable\nBit rate                         : 128 Kbps\nMaximum bit rate                 : 180 Kbps\nChannel(s)                       : 2 channels\nChannel positions                : Front: L R\nSampling rate                    : 48.0 KHz\nStream size                      : 88.6 MiB (24%)\nLanguage                         : English\n\nScreens : &lt;a href=&quot;\nhttp://img706.imageshack.us/img706/725/vlcsnap00001f.png&quot; rel=&quot;nofollow&quot; target=&quot;_NEW&quot;&gt;\nhttp://img706.imageshack.us/img706/725/vlcsnap00001f.png&lt;/a&gt; &lt;a href=&quot;\nhttp://img444.imageshack.us/img444/1282/vlcsnap00002t.png&quot; rel=&quot;nofollow&quot; target=&quot;_NEW&quot;&gt;\nhttp://img444.imageshack.us/img444/1282/vlcsnap00002t.png&lt;/a&gt; &lt;a href=&quot;\nhttp://img43.imageshack.us/img43/7651/vlcsnap00003w.png&quot; rel=&quot;nofollow&quot; target=&quot;_NEW&quot;&gt;\nhttp://img43.imageshack.us/img43/7651/vlcsnap00003w.png&lt;/a&gt; &lt;a href=&quot;\nhttp://img340.imageshack.us/img340/5638/vlcsnap00004m.png&quot; rel=&quot;nofollow&quot; target=&quot;_NEW&quot;&gt;\nhttp://img340.imageshack.us/img340/5638/vlcsnap00004m.png&lt;/a&gt; &lt;a href=&quot;\nhttp://img23.imageshack.us/img23/8872/vlcsnap00005s.png&quot; rel=&quot;nofollow&quot; target=&quot;_NEW&quot;&gt;\nhttp://img23.imageshack.us/img23/8872/vlcsnap00005s.png&lt;/a&gt; &lt;a href=&quot;\nhttp://img228.imageshack.us/img228/3027/vlcsnap00006d.png&quot; rel=&quot;nofollow&quot; target=&quot;_NEW&quot;&gt;\nhttp://img228.imageshack.us/img228/3027/vlcsnap00006d.png&lt;/a&gt; &lt;a href=&quot;\nhttp://img713.imageshack.us/img713/4978/vlcsnap00007b.png&quot; rel=&quot;nofollow&quot; target=&quot;_NEW&quot;&gt;\nhttp://img713.imageshack.us/img713/4978/vlcsnap00007b.png&lt;/a&gt; &lt;a href=&quot;\nhttp://img51.imageshack.us/img51/8315/vlcsnap00008c.png&quot; rel=&quot;nofollow&quot; target=&quot;_NEW&quot;&gt;\nhttp://img51.imageshack.us/img51/8315/vlcsnap00008c.png&lt;/a&gt;\n\n\nPLEASE LET THE TORRENT SEED AND SHARE IT WITH ALL YOU KNOW!\n\nLet me know what I can do to be your trusted source of Handheld videos. &lt;a href=&quot;\nhttp://thepiratebay.se/user/on.off.on/&quot; rel=&quot;nofollow&quot; target=&quot;_NEW&quot;&gt;\nhttp://thepiratebay.se/user/on.off.on/&lt;/a&gt; -OOO","torrent":{"xt":"urn:btih:18b896ba41f74237841a331f4a0c6cde127950f8","amp;dn":"The+Losers+%28PSP+%2B+Ipod+touch+%2B+Zune%29","amp;tr":["udp%3A%2F%2Ftracker.openbittorrent.com%3A80","udp%3A%2F%2Fopen.demonii.com%3A1337","udp%3A%2F%2Ftracker.coppersurfer.tk%3A6969","udp%3A%2F%2Fexodus.desync.com%3A6969"],"infoHash":"18b896ba41f74237841a331f4a0c6cde127950f8","infoHashBuffer":{"type":"Buffer","data":[24,184,150,186,65,247,66,55,132,26,51,31,74,12,108,222,18,121,80,248]},"announce":[],"urlList":[]}}